<?xml version="1.0" encoding="UTF-8" standalone="no"?>
<!-- Created with Inkscape (http://www.inkscape.org/) -->

<svg
   xmlns:dc="http://purl.org/dc/elements/1.1/"
   xmlns:cc="http://creativecommons.org/ns#"
   xmlns:rdf="http://www.w3.org/1999/02/22-rdf-syntax-ns#"
   xmlns:svg="http://www.w3.org/2000/svg"
   xmlns="http://www.w3.org/2000/svg"
   xmlns:xlink="http://www.w3.org/1999/xlink"
   xmlns:sodipodi="http://sodipodi.sourceforge.net/DTD/sodipodi-0.dtd"
   xmlns:inkscape="http://www.inkscape.org/namespaces/inkscape"
   width="208.19962mm"
   height="219.11633mm"
   viewBox="0 0 208.19962 219.11634"
   version="1.1"
   id="svg14328"
   inkscape:version="0.92.3 (2405546, 2018-03-11)"
   sodipodi:docname="single-brain.svg">
  <defs
     id="defs14322">
    <polygon
       points="334.42197,682.48346 0,682.48346 0,0.12622102 334.42197,0.12622102 "
       id="path-1" />
    <polygon
       points="41.465648,57.015843 0.74838377,57.015843 0.74838377,0.8279322 41.465648,0.8279322 "
       id="path-3" />
    <mask
       fill="white"
       id="mask-4">
      <use
         id="use14914"
         xlink:href="#path-3"
         x="0"
         y="0"
         width="100%"
         height="100%" />
    </mask>
    <mask
       fill="white"
       id="mask-2">
      <use
         id="use14881"
         xlink:href="#path-1"
         x="0"
         y="0"
         width="100%"
         height="100%" />
    </mask>
  </defs>
  <sodipodi:namedview
     id="base"
     pagecolor="#ffffff"
     bordercolor="#666666"
     borderopacity="1.0"
     inkscape:pageopacity="0.0"
     inkscape:pageshadow="2"
     inkscape:zoom="0.34830592"
     inkscape:cx="397.75502"
     inkscape:cy="6.5304044"
     inkscape:document-units="mm"
     inkscape:current-layer="layer1"
     showgrid="false"
     fit-margin-top="0"
     fit-margin-left="0"
     fit-margin-right="0"
     fit-margin-bottom="0"
     inkscape:window-width="1920"
     inkscape:window-height="1001"
     inkscape:window-x="-9"
     inkscape:window-y="-9"
     inkscape:window-maximized="1" />
  <metadata
     id="metadata14325">
    <rdf:RDF>
      <cc:Work
         rdf:about="">
        <dc:format>image/svg+xml</dc:format>
        <dc:type
           rdf:resource="http://purl.org/dc/dcmitype/StillImage" />
        <dc:title></dc:title>
      </cc:Work>
    </rdf:RDF>
  </metadata>
  <g
     inkscape:label="Layer 1"
     inkscape:groupmode="layer"
     id="layer1"
     transform="translate(-132.00852,47.19532)">
    <rect
       style="opacity:1;vector-effect:none;fill:#413333;fill-opacity:1;stroke:#ffffff;stroke-width:0.02645833;stroke-linecap:round;stroke-linejoin:round;stroke-miterlimit:4;stroke-dasharray:none;stroke-dashoffset:19.65354347;stroke-opacity:1;paint-order:fill markers stroke"
       id="rect17036"
       width="359.21024"
       height="277.9603"
       x="-253.96828"
       y="-14.765316" />
    <path
       style="opacity:1;vector-effect:none;fill:#ffffff;fill-opacity:0.53398061;stroke:none;stroke-width:1;stroke-linecap:round;stroke-linejoin:round;stroke-miterlimit:4;stroke-dasharray:none;stroke-dashoffset:19.65354347;stroke-opacity:1;paint-order:fill markers stroke"
       d="m 240.81685,-47.083194 a 104.09968,109.5581 0 0 0 -59.54115,16.318143 l -0.27169,0.177577 A 104.09968,109.5581 0 0 0 147.74691,120.28506 104.09968,109.5581 0 0 0 291.07712,155.4018 104.09968,109.5581 0 0 0 324.55419,4.5833556 104.09968,109.5581 0 0 0 240.81685,-47.083194 Z m -0.29625,6.888228 A 97.545421,102.66262 0 0 1 318.98556,8.2195891 97.545421,102.66262 0 0 1 287.61619,149.54586 97.545421,102.66262 0 0 1 153.3103,116.63913 97.545421,102.66262 0 0 1 184.4733,-24.73715 l 0.25445,-0.166351 a 97.545421,102.66262 0 0 1 55.79285,-15.291465 z"
       id="path17042"
       inkscape:connector-curvature="0" />
    <g
       style="fill:none;fill-rule:evenodd;stroke:none;stroke-width:1"
       id="Clip-2"
       transform="matrix(0.26458333,0,0,0.26458333,150.32329,-31.832241)" />
    <g
       style="fill:none;fill-rule:evenodd;stroke:none;stroke-width:1"
       id="Clip-59"
       transform="matrix(0.26458333,0,0,0.26458333,227.47392,-32.096824)" />
    <path
       style="fill:#ffffff;fill-opacity:1;fill-rule:evenodd;stroke:none;stroke-width:0.99999994"
       d="m 944.19727,-116.83398 c -23.06034,0 -42.42975,-1e-5 -33.57813,58.14648 l 8.60742,54.2050781 c 2.83079,17.8191999 2.6309,35.9867109 -0.59179,53.7382809 l -3.17188,17.47461 c -4.61998,25.443178 -3.00896,51.626121 4.69141,76.312501 5.75021,18.43257 8.11851,37.75284 6.99414,57.02734 l 0.19336,1.57031 c 1.32733,10.75729 4.38293,21.19547 8.63086,31.16797 3.36846,7.90501 2.31126,12.26118 -1.51563,26.50977 l -1.38281,5.14648 c -6.15961,22.93838 -10.45973,46.30908 -13.6836,69.83985 -0.15382,1.12645 -0.32246,2.25009 -0.50195,3.37304 l -3.73633,23.25977 c -2.99523,18.65295 -2.38378,37.70567 1.79883,56.12891 4.0893,18.00929 10.81093,18.88206 7.41211,35.30078 -2.21378,10.69428 -11.61981,34.95806 -12.75586,45.82031 l -0.33789,3.23438 c -1.49529,14.29757 2.01708,28.81171 10.51758,40.40624 10.53233,14.36637 27.53659,23.69336 46.71875,23.69336 v 0.002 c 1.49061,0 2.9781,-0.0126 4.46289,-0.0391 26.17689,-0.44198 53.69365,-3.27355 79.41795,-9.52735 22.4153,-5.44921 43.4679,-13.49554 61.0918,-24.82422 17.5189,-11.25989 24.7915,-29.99631 38.9629,-45.0332 51.4452,-54.58753 78.8338,-131.43747 67.6191,-211.51367 -2.0003,-14.28125 -11.2369,-19.14556 0.7207,-43.02149 5.8564,-35.33988 11.0191,-83.02786 -8.0546,-113.35351 l -5.8946,-9.37305 c -7.894,-12.55076 -13.8856,-26.217528 -17.6191,-40.566406 -20.2074,-77.6833591 -83.2851,-128.094854 -147.1895,-160.429687 -31.4395,-15.909127 -52.94797,-24.675777 -88.78121,-24.675777 z m 37.58203,39.337886 c 4.76814,0 8.63281,3.863836 8.63281,8.63086 0,1.142409 -0.22756,2.230607 -0.63086,3.228515 l 5.36523,6.898438 h 21.68942 c 1.4316,-2.785013 4.3282,-4.69336 7.6758,-4.69336 4.7681,0 8.6328,3.863047 8.6328,8.628907 0,4.765855 -3.8647,8.628906 -8.6328,8.628906 -3.0155,0 -5.6676,-1.548248 -7.2109,-3.890625 h -15.4102 l 10.9121,14.035156 h 10.3262 c 1.515,-2.485723 4.2429,-4.150391 7.3672,-4.150391 4.7681,10e-7 8.6328,3.863837 8.6328,8.63086 0,4.765858 -3.8647,8.628906 -8.6328,8.628906 -3.2437,0 -6.0664,-1.790772 -7.541,-4.435547 h -14.3985 l -25.63082,-32.964843 c -0.376,0.04999 -0.75679,0.08398 -1.14648,0.08398 -3.08314,0 -5.78002,-1.621635 -7.30664,-4.052734 h -21.125 c -0.094,0.279474 -0.20129,0.552494 -0.32227,0.818359 l 51.98241,60.1503905 h 39.0234 l 16.2715,15.8300785 h 21.6582 V -24.00977 c -2.6458,-1.47429 -4.4375,-4.296017 -4.4375,-7.539062 0,-4.767023 3.8639,-8.63086 8.6309,-8.63086 4.7681,1e-6 8.6328,3.863837 8.6328,8.63086 0,3.122273 -1.6638,5.848276 -4.1484,7.363281 v 39.46875 l 18.2715,22.060547 h 17.6992 l 2.4844,-3.449219 c -0.5886,-1.166613 -0.9278,-2.481109 -0.9278,-3.876953 0,-4.76702 3.8639,-8.628906 8.6309,-8.628906 4.7681,0 8.6328,3.861886 8.6328,8.628906 0,4.76586 -3.8647,8.628906 -8.6328,8.628906 -0.1404,0 -0.2773,-0.01291 -0.416,-0.01953 l -5.3262,7.390625 h -14.959 l 11.2617,13.597656 c 4.6843,0.09658 8.4531,3.91392 8.4531,8.619141 0,4.76586 -3.8646,8.628906 -8.6328,8.628906 -4.7669,0 -8.6308,-3.863046 -8.6308,-8.628906 0,-1.557472 0.4205,-3.014034 1.1426,-4.275391 l -35.4297,-42.773437 h -27.4825 L 1040.5039,5.3554688 h -33.1426 v 9.1914062 c 2.3453,1.542648 3.8965,4.194608 3.8965,7.210937 0,4.76586 -3.8647,8.628907 -8.6328,8.628907 -4.76693,0 -8.63086,-3.863047 -8.63086,-8.628907 0,-3.345096 1.90611,-6.239837 4.68945,-7.671874 V 2.6347656 L 976.79297,-22.697266 957.44531,1.4140625 c 0.2874,0.8599752 0.44922,1.7775819 0.44922,2.734375 0,2.6494692 -1.19824,5.0167105 -3.07812,6.5996095 l 4.13281,30.361328 h 37.2207 L 1012.4414,56.9375 h 28.0391 l 23.5761,28.464844 h 26.627 l 22.1426,25.269536 c 0.028,-2.8e-4 0.056,-0.004 0.084,-0.004 4.7681,0 8.6328,3.86384 8.6328,8.63086 0,2.63902 -1.1896,4.99724 -3.0567,6.58008 v 37.55468 c 2.065,0.83207 3.7301,2.43926 4.6426,4.46094 h 14.5957 c 0.8106,-1.79588 2.2153,-3.26146 3.9668,-4.15039 V 127 c -2.8169,-1.42071 -4.7539,-4.33136 -4.7539,-7.70117 0,-4.76702 3.8639,-8.63086 8.6309,-8.63086 2.2499,0 4.2917,0.86781 5.8281,2.27734 l 19.873,-11.19531 c 0.066,-4.709679 3.8996,-8.507812 8.625,-8.507812 4.7682,-2e-6 8.6328,3.863828 8.6328,8.630862 0,4.76586 -3.8646,8.6289 -8.6328,8.6289 -1.5938,0 -3.08,-0.44027 -4.3613,-1.19336 l -21.623,12.17969 c -0.5405,2.06192 -1.8167,3.82654 -3.5411,4.98242 v 37.78125 c 2.3219,1.5466 3.8516,4.1852 3.8516,7.1836 0,2.6347 -1.1839,4.98935 -3.0449,6.57226 l 5.9765,44.9336 c 1.7766,0.76179 3.2455,2.10117 4.17,3.7832 h 19.8554 c 0.6265,-1.13986 1.5059,-2.11676 2.5586,-2.86914 l -5.7461,-44.1875 c -3.5009,-1.1001 -6.041,-4.36817 -6.041,-8.23242 0,-4.76586 3.8639,-8.62891 8.6309,-8.62891 4.7681,0 8.6328,3.86305 8.6328,8.62891 0,2.61469 -1.1673,4.9526 -3.0039,6.53515 l 5.8437,44.93164 c 3.1259,1.29757 5.3243,4.37647 5.3243,7.97071 0,3.5451 -2.1387,6.58775 -5.1954,7.91601 l -6.6113,48.76758 c 1.8089,1.58173 2.957,3.89894 2.957,6.49024 0,4.76584 -3.8646,8.6289 -8.6328,8.6289 -4.7669,0 -8.6308,-3.86306 -8.6308,-8.6289 0,-3.76222 2.4122,-6.95394 5.7715,-8.13477 l 6.5293,-48.14844 c -0.8588,-0.64653 -1.5911,-1.44595 -2.1583,-2.36328 h -20.3124 c -0.9845,1.59228 -2.469,2.83716 -4.2383,3.51953 l -6.461,47.66602 c 2.5734,1.49375 4.3086,4.27199 4.3086,7.46094 0,3.19971 -1.7462,5.98652 -4.334,7.47656 v 34.25781 c 2.8393,1.38364 4.8061,4.27137 4.8536,7.63086 l 20.3105,11.44141 c 1.2812,-0.75288 2.7677,-1.19141 4.3613,-1.19141 4.7682,0 8.6328,3.86305 8.6328,8.62891 0,4.76702 -3.8646,8.63085 -8.6328,8.63086 -4.7261,0 -8.5595,-3.79919 -8.625,-8.50977 L 1150.959,350.9707 c -1.2814,0.75288 -2.7693,1.19336 -4.3633,1.19336 -4.7669,0 -8.6328,-3.86304 -8.6328,-8.6289 0,-2.94434 1.4777,-5.54214 3.7285,-7.09961 v -34.96289 c -1.2658,-0.74781 -2.323,-1.80575 -3.0664,-3.07422 h -15.2891 c -0.8506,2.25845 -2.6156,4.06458 -4.8496,4.96484 v 32.8457 c 2.4483,1.52299 4.084,4.23064 4.084,7.32618 0,4.76586 -3.8647,8.6289 -8.6328,8.6289 -1.1412,0 -2.2274,-0.22867 -3.2246,-0.63086 l -20.0293,22.85742 h -26.627 l -23.5761,28.46485 h -28.0391 l -16.27148,15.82812 h -37.2207 l -4.13281,30.36914 c 1.87988,1.58303 3.07812,3.94949 3.07812,6.59961 0,1.12392 -0.2223,2.195 -0.61328,3.17969 l 16.29102,22.81836 c 0.39621,-0.0557 0.7974,-0.0937 1.20898,-0.0937 0.87008,0 1.71006,0.12985 2.50195,0.36914 l 21.40039,-24.76562 v -10.27735 c -2.78334,-1.43204 -4.68945,-4.32679 -4.68945,-7.67187 0,-4.76705 3.86393,-8.63086 8.63086,-8.63086 4.7681,0 8.6328,3.86381 8.6328,8.63086 0,3.01627 -1.5513,5.66632 -3.8965,7.20898 v 8.01758 h 33.1446 l 16.2734,-15.82812 h 27.4805 l 35.0566,-42.32813 c -0.4899,-1.08323 -0.7695,-2.28073 -0.7695,-3.54687 0,-4.76705 3.8639,-8.63086 8.6308,-8.63086 4.7682,0 8.6328,3.86381 8.6328,8.63086 0,4.76582 -3.8646,8.6289 -8.6328,8.6289 -0.2597,0 -0.5156,-0.0166 -0.7695,-0.0391 l -10.3125,12.45117 h 14.959 l 7.8476,10.88867 c 0.077,-0.002 0.1514,-0.0117 0.2286,-0.0117 4.7681,0 8.6308,3.86304 8.6308,8.62891 0,4.76583 -3.8627,8.63086 -8.6308,8.63086 -4.767,0 -8.6309,-3.86503 -8.6309,-8.63086 0,-1.46017 0.3656,-2.83349 1.0059,-4.03906 l -4.8965,-6.79297 h -17.6992 l -18.2715,22.06055 v 39.14453 c 2.8131,1.42216 4.7461,4.33058 4.7461,7.69726 0,4.76587 -3.8628,8.62891 -8.6309,8.62891 -4.767,0 -8.6328,-3.86304 -8.6328,-8.62891 0,-2.99244 1.526,-5.62792 3.8398,-7.17578 v -36.89062 h -21.6582 l -16.2734,15.82617 h -39.0215 l -21.79882,25.22461 c 0.13031,0.59618 0.20508,1.21434 0.20508,1.84961 0,4.76587 -3.86471,8.6289 -8.63281,8.6289 -0.20237,0 -0.40072,-0.0176 -0.59961,-0.0312 l -21.86133,25.29883 h 27.51953 l 28.71676,-36.93359 h 11.1778 c 1.4762,-2.63924 4.2936,-4.42578 7.5332,-4.42578 4.7681,0 8.6328,3.86307 8.6328,8.6289 0,4.76587 -3.8647,8.62891 -8.6328,8.62891 -3.1276,0 -5.8571,-1.66844 -7.3711,-4.1582 h -7.0938 l -10.9121,14.03515 h 14.0137 c 1.5738,-1.66903 3.7981,-2.71679 6.2734,-2.7168 4.7682,0 8.6328,3.86382 8.6328,8.63086 0,4.76584 -3.8646,8.62891 -8.6328,8.62891 -3.7997,0 -7.0171,-2.45749 -8.1699,-5.86719 h -18.86327 l -11.05859,14.22266 h -34.04688 c -1.54479,2.33455 -4.19098,3.87695 -7.20117,3.87695 -4.76697,0 -8.63281,-3.86303 -8.63281,-8.6289 0,-4.76701 3.86584,-8.63086 8.63281,-8.63086 0.65244,0 1.28548,0.0797 1.89649,0.21679 l 22.24218,-25.73828 c -0.52445,-1.1139 -0.82617,-2.35329 -0.82617,-3.66601 0,-1.11362 0.21738,-2.17507 0.60156,-3.15235 l -16.30468,-22.84179 c -0.38854,0.0535 -0.78229,0.0918 -1.18555,0.0918 -4.76697,0 -8.63086,-3.86499 -8.63086,-8.63086 0,-3.70953 2.34452,-6.86156 5.62891,-8.08203 l 4.34765,-31.95117 -11.27344,-13.89062 v -34.92188 l 13.81836,-16.26758 h 9.91407 l 27.72461,-32.06445 c -0.37371,-0.96581 -0.5879,-2.01156 -0.5879,-3.10938 0,-4.76586 3.8639,-8.6289 8.63086,-8.6289 4.76812,0 8.63282,3.86304 8.63282,8.6289 0,4.76702 -3.8647,8.63086 -8.63282,8.63086 -0.42887,0 -0.84571,-0.0412 -1.25781,-0.10156 l -12.96289,14.99024 h 13.12891 l 15.83591,-19.1211 c -0.766,-1.28894 -1.2129,-2.79007 -1.2129,-4.39844 0,-4.76586 3.8639,-8.6289 8.6309,-8.6289 4.7681,0 8.6328,3.86304 8.6328,8.6289 0,4.64575 -3.6733,8.42359 -8.2734,8.61329 l -5.4043,6.52539 h 14.0703 l 8.916,-11.29297 c -0.5786,-1.15895 -0.9121,-2.46216 -0.9121,-3.84571 0,-2.97262 1.5029,-5.59263 3.791,-7.14453 l -1.4844,-48.16797 h -16.5761 l -11.9375,17.35352 c 1.1067,1.45093 1.7714,3.25677 1.7714,5.22266 0,4.76586 -3.8646,8.6289 -8.6328,8.6289 -4.6496,0 -8.42947,-3.67777 -8.61325,-8.28125 l -11.38867,-8.4707 c -1.4629,1.13927 -3.29651,1.82422 -5.29492,1.82422 -0.81639,0 -1.60301,-0.12224 -2.35157,-0.33399 l -23.50781,32.85157 c 0.24647,0.80221 0.38086,1.65409 0.38086,2.53711 0,4.76702 -3.86471,8.6289 -8.63281,8.6289 -4.76697,0 -8.63086,-3.86188 -8.63086,-8.6289 0,-4.76586 3.86389,-8.62891 8.63086,-8.62891 0.61912,0 1.22252,0.0657 1.80469,0.18945 l 23.88476,-33.375 c -0.13331,-0.60266 -0.20898,-1.22638 -0.20898,-1.86914 0,-4.76586 3.86389,-8.6289 8.63086,-8.6289 4.20408,0 7.70113,3.00516 8.4707,6.98242 l 12.36524,9.19726 c 0.9182,-0.55634 1.9464,-0.94509 3.0469,-1.12695 l 12.4101,-18.03906 -12.2812,-13.53711 c -0.3438,0.0416 -0.6919,0.0703 -1.0469,0.0703 -4.76693,0 -8.63086,-3.86383 -8.63086,-8.63086 0,-4.76585 3.86393,-8.6289 8.63086,-8.6289 4.7681,0 8.6328,3.86305 8.6328,8.6289 0,1.16474 -0.2361,2.27355 -0.6543,3.28711 l 12.793,14.10352 h 16.832 l 0.2715,-42.96485 h -18.9961 c -0.01,6e-5 -0.018,0.002 -0.027,0.002 -0.2662,0 -0.5302,-0.0319 -0.7911,-0.0801 -0.048,-0.009 -0.095,-0.017 -0.1425,-0.0273 -0.2353,-0.0516 -0.4652,-0.12285 -0.6895,-0.21289 -0.055,-0.0223 -0.1079,-0.0478 -0.1621,-0.0723 -0.2221,-0.0999 -0.4383,-0.21199 -0.6426,-0.34961 -0.2052,-0.13838 -0.3983,-0.30109 -0.58,-0.47656 -0.037,-0.0356 -0.074,-0.0705 -0.1094,-0.10743 -0.1648,-0.17071 -0.3221,-0.35264 -0.461,-0.55468 l -0.019,-0.0293 c 0,-0.003 0,-0.005 -0.01,-0.008 l -13.8378,-20.11524 c -0.8987,0.31678 -1.8601,0.49805 -2.8672,0.49805 -1.0786,0 -2.10676,-0.2052 -3.05862,-0.56641 l -15.07422,11.21289 c -0.21899,0.25204 -0.45874,0.48858 -0.74219,0.69141 -0.76513,0.5469 -1.64785,0.81055 -2.52149,0.81055 -0.17514,0 -0.35,-0.0122 -0.52343,-0.0332 -1.20596,-0.094 -2.36802,-0.66996 -3.14649,-1.71679 -0.23738,-0.31902 -0.40694,-0.66425 -0.54492,-1.01758 l -29.9375,-41.83789 c -0.0237,1.9e-4 -0.0466,0.004 -0.0703,0.004 -4.76697,0 -8.63086,-3.86188 -8.63086,-8.6289 0,-4.76586 3.86389,-8.63086 8.63086,-8.63086 4.7681,0 8.63281,3.865 8.63281,8.63086 0,1.5151 -0.39248,2.93649 -1.07812,4.17383 l 27.55664,38.50781 11.98632,-8.91406 c -0.0658,-0.42948 -0.10937,-0.86655 -0.10937,-1.31446 0,-4.76586 3.86386,-8.6289 8.63088,-8.6289 4.7681,0 8.6328,3.86304 8.6328,8.6289 0,0.37053 -0.031,0.7336 -0.076,1.0918 l 14.0313,20.39648 h 16.5761 l 1.4492,-47.01953 c -2.2672,-1.55473 -3.7558,-4.16176 -3.7558,-7.11914 0,-1.66426 0.4786,-3.21319 1.2949,-4.53125 l -9.3008,-11.77929 H 1015.95 l 6.4082,7.73828 c 0.3178,-0.0354 0.6396,-0.0566 0.9668,-0.0566 4.7682,0 8.6328,3.86304 8.6328,8.6289 0,4.76703 -3.8646,8.62891 -8.6328,8.62891 -4.7669,0 -8.6308,-3.86188 -8.6308,-8.62891 0,-1.20233 0.247,-2.34681 0.6914,-3.38672 L 997.74219,120.9082 h -13.12696 l 14.17969,16.40039 c 0.75475,-0.21557 1.54908,-0.33593 2.37308,-0.33593 4.7681,0 8.6328,3.86304 8.6328,8.6289 0,4.76703 -3.8647,8.62891 -8.6328,8.62891 -4.76703,0 -8.63089,-3.86188 -8.63089,-8.62891 0,-0.68521 0.0873,-1.34918 0.23828,-1.98828 l -29.71094,-34.35937 h -9.91211 L 939.33398,92.986328 V 58.064453 l 11.27344,-13.892578 -4.34765,-31.941406 c -3.28439,-1.220426 -5.62891,-4.3734147 -5.62891,-8.0820315 0,-4.7670199 3.86389,-8.6289063 8.63086,-8.6289063 0.56754,10e-8 1.12126,0.059613 1.6582,0.1640626 L 971.02539,-29.373047 945.9043,-58.443359 c -0.2426,0.02047 -0.48648,0.03711 -0.73438,0.03711 -4.76697,0 -8.63281,-3.863051 -8.63281,-8.628906 0,-4.767028 3.86584,-8.63086 8.63281,-8.63086 2.4695,0 4.69037,1.042022 6.26367,2.703125 h 22.74805 c 1.45905,-2.698693 4.31415,-4.533203 7.59766,-4.533204 z m -24.55274,127.28125 -9.21484,11.355469 v 28.658203 l 9.15625,10.779292 h 5.88086 l 6.83008,-7.912104 c -0.43935,-1.034974 -0.68164,-2.173941 -0.68164,-3.369141 0,-4.765852 3.8639,-8.628906 8.63085,-8.628906 4.76811,0 8.63282,3.863054 8.63282,8.628906 0,4.76586 -3.86471,8.628906 -8.63282,8.628906 -0.3298,0 -0.65441,-0.02259 -0.9746,-0.05859 l -6.07618,7.037109 6.33594,7.32812 h 24.71092 l 6.9434,8.38281 h 25.459 l 12.9355,16.38282 c 4.5312,0.26316 8.127,4.00835 8.127,8.60351 0,3.40675 -1.9792,6.343 -4.8457,7.7461 l -1.0196,33.05664 c 0.1307,-4.65282 3.9348,-8.38477 8.6192,-8.38477 4.7681,0 8.6328,3.86189 8.6328,8.62891 0,4.76586 -3.8647,8.6289 -8.6328,8.6289 -4.7466,0 -8.594,-3.8307 -8.627,-8.56836 l -0.4609,14.89844 c 0.1593,0.45622 0.261,0.94016 0.2578,1.45117 l -0.25,39.28711 10.9687,-13.66797 16.2168,-22.71679 c -0.3444,-0.93173 -0.541,-1.93497 -0.541,-2.98633 0,-4.76703 3.8639,-8.63086 8.6309,-8.63086 4.7681,0 8.6328,3.86383 8.6328,8.63086 0,4.76586 -3.8647,8.62891 -8.6328,8.62891 -0.4683,0 -0.9231,-0.0474 -1.3711,-0.11914 l -11.0391,15.46289 h 34.5899 c 1.4299,-2.79009 4.3283,-4.70313 7.6797,-4.70313 4.7681,0 8.6308,3.86305 8.6308,8.62891 0,4.76702 -3.8627,8.63086 -8.6308,8.63086 -3.012,0 -5.661,-1.54469 -7.2051,-3.88282 h -35.0645 l 11.3711,15.92969 c 0.3418,-0.0411 0.6862,-0.0684 1.0391,-0.0684 4.7681,0 8.6328,3.86384 8.6328,8.63086 0,4.76586 -3.8647,8.62891 -8.6328,8.62891 -4.767,0 -8.6309,-3.86305 -8.6309,-8.62891 0,-1.18063 0.2369,-2.30527 0.666,-3.33008 l -13.0761,-18.31445 -14.2989,17.82422 1.5821,51.34375 c 2.8466,1.41048 4.8086,4.33719 4.8086,7.72851 0,4.76702 -3.8647,8.63086 -8.6329,8.63086 -0.1435,0 -0.2838,-0.0145 -0.4257,-0.0215 l -12.0039,15.20312 h -25.459 l -6.9434,8.38282 h -24.71287 l -6.33594,7.32812 7.05078,8.16602 c 0.59131,-0.12798 1.20435,-0.19922 1.83399,-0.19922 4.76813,0 8.63281,3.86305 8.63281,8.62891 0,4.76584 -3.86468,8.6289 -8.63281,8.6289 -4.76697,0 -8.63086,-3.86306 -8.63086,-8.6289 0,-0.89513 0.13761,-1.75848 0.39062,-2.57032 l -8.37304,-9.69922 h -5.87891 l -9.1543,10.77735 v 28.6582 l 9.21485,11.35742 h 35.41601 l 14.83987,-14.43554 27.4453,-33.30079 c -0.5679,-1.1502 -0.8945,-2.44095 -0.8945,-3.81054 0,-4.76585 3.8658,-8.62891 8.6328,-8.62891 4.7681,0 8.6308,3.86306 8.6308,8.62891 0,4.76703 -3.8627,8.63086 -8.6308,8.63086 -0.1516,0 -0.2997,-0.0157 -0.4492,-0.0234 l -22.3438,27.11133 h 16.5234 l 33.709,-40.69727 c -0.5198,-1.10985 -0.8203,-2.34389 -0.8203,-3.65039 0,-4.76703 3.8639,-8.62891 8.6309,-8.62891 4.7681,0 8.6328,3.86188 8.6328,8.62891 0,4.76585 -3.8647,8.62891 -8.6328,8.62891 -0.2167,0 -0.428,-0.0175 -0.6407,-0.0332 l -6.0371,7.28907 h 15.5098 l 18.6094,-21.24024 c -0.034,-0.30995 -0.055,-0.62248 -0.055,-0.9414 0,-3.27169 1.8206,-6.11847 4.5039,-7.58204 v -33.90624 c -1.9375,-1.58251 -3.1758,-3.98852 -3.1758,-6.68555 0,-4.76586 3.8639,-8.62891 8.6309,-8.62891 2.6098,0 4.9426,1.16095 6.5254,2.99024 h 16.8203 c 0.7317,-1.25896 1.7712,-2.31347 3.0176,-3.06446 l 6.6582,-49.10937 c -1.9301,-1.58264 -3.1622,-3.98479 -3.1622,-6.67578 0,-2.80419 1.3437,-5.28715 3.4161,-6.86328 l -5.9161,-44.47657 c -1.5947,-0.58418 -2.9638,-1.62317 -3.9589,-2.96289 h -16.4727 c -1.5729,2.11805 -4.0859,3.4961 -6.9277,3.4961 -4.767,0 -8.6309,-3.86384 -8.6309,-8.63086 0,-2.69638 1.2383,-5.10122 3.1758,-6.6836 v -37.4082 c -3.2322,-1.2468 -5.5293,-4.37379 -5.5293,-8.04492 0,-1.4673 0.3678,-2.84689 1.0137,-4.05664 L 1086.75,94.078125 h -15.5078 l 7.8144,9.433595 c 0.1766,-0.0108 0.352,-0.0273 0.5313,-0.0273 4.7681,-1e-5 8.6309,3.86383 8.6309,8.63085 0,4.76586 -3.8628,8.62891 -8.6309,8.62891 -4.767,0 -8.6309,-3.86305 -8.6309,-8.62891 0,-1.34135 0.3135,-2.60792 0.8594,-3.74023 l -35.418,-42.761719 h -16.041 l 27.3047,30.638672 c 0.2758,-0.02657 0.5551,-0.04297 0.8379,-0.04297 4.7681,0 8.6309,3.863047 8.6309,8.628907 0,4.76702 -3.8628,8.63086 -8.6309,8.63086 -4.767,0 -8.6328,-3.86384 -8.6328,-8.63086 0,-1.23531 0.2627,-2.40823 0.7305,-3.4707 L 1007.5391,64.273438 992.64453,49.785156 Z"
       transform="scale(0.26458333)"
       id="Fill-65"
       inkscape:connector-curvature="0" />
    <path
       inkscape:connector-curvature="0"
       id="path17038"
       d="m 223.01094,-30.912323 c 6.10138,0 11.2262,-3e-6 8.88421,15.384589 l -2.27738,14.3417599 c -0.74898,4.7146632 -0.69609,9.5214838 0.15658,14.2182531 l 0.83923,4.623491 c 1.22237,6.73184 0.79612,13.659411 -1.24127,20.191015 -1.52141,4.876951 -2.14802,9.988772 -1.85053,15.088484 l -0.0512,0.415478 c -0.35119,2.846199 -1.15965,5.607968 -2.28359,8.246525 -0.89123,2.091534 -0.61152,3.244104 0.40101,7.014043 l 0.36587,1.361673 c 1.62973,6.069113 2.76747,12.252611 3.62045,18.47846 0.0407,0.29804 0.0853,0.595336 0.13281,0.89245 l 0.98857,6.154148 c 0.79249,4.935264 0.63071,9.976294 -0.47594,14.850774 -1.08196,4.76496 -2.86039,4.99588 -1.96112,9.34 0.58573,2.82953 3.07441,9.24932 3.37499,12.12329 l 0.0894,0.85576 c 0.39563,3.7829 -0.53369,7.6231 -2.78278,10.69082 -2.78668,3.8011 -7.28572,6.26887 -12.361,6.26887 v 5.3e-4 c -0.39439,0 -0.78795,-0.003 -1.18081,-0.0103 -6.92596,-0.11694 -14.20644,-0.86613 -21.01266,-2.52078 -5.93072,-1.44177 -11.50088,-3.57069 -16.16387,-6.56807 -4.63521,-2.97918 -6.55942,-7.93653 -10.30894,-11.91504 -13.61154,-14.44295 -20.85811,-34.77616 -17.89088,-55.962988 0.52924,-3.77858 2.97309,-5.065596 -0.19069,-11.382769 -1.5495,-9.350343 -2.91547,-21.967787 2.13111,-29.991449 l 1.55962,-2.479953 c 2.08862,-3.320722 3.6739,-6.93672 4.66172,-10.733194 5.34654,-20.5537223 22.03585,-33.891763 38.94389,-42.447021 8.31836,-4.20929 14.00915,-6.528799 23.49002,-6.528799 z m -9.94358,10.408148 c -1.26157,0 -2.2841,1.022307 -2.2841,2.283582 0,0.302262 0.0602,0.590181 0.16692,0.854211 l -1.41955,1.825212 h -5.73866 c -0.37878,-0.736868 -1.14517,-1.241785 -2.03089,-1.241785 -1.26156,0 -2.2841,1.022098 -2.2841,2.283065 0,1.260966 1.02254,2.283065 2.2841,2.283065 0.79785,0 1.49955,-0.409641 1.90788,-1.029395 h 4.07729 l -2.88716,3.7134686 h -2.73214 c -0.40085,-0.6576806 -1.12261,-1.0981246 -1.94924,-1.0981246 -1.26156,1e-6 -2.2841,1.0223072 -2.2841,2.283582 0,1.2609666 1.02254,2.2830647 2.2841,2.2830647 0.85823,0 1.60507,-0.4738084 1.99522,-1.1735718 h 3.8096 l 6.78149,-8.7219479 c 0.0995,0.01323 0.20023,0.02222 0.30334,0.02222 0.81575,0 1.5293,-0.429058 1.93322,-1.072286 h 5.58932 c 0.0249,0.07394 0.0533,0.146181 0.0853,0.216524 l -13.75368,15.9147906 h -10.32494 l -4.30517,4.1883749 h -5.7304 v -9.6624594 c 0.70003,-0.3900726 1.17409,-1.1366545 1.17409,-1.9947101 0,-1.2612748 -1.02233,-2.283582 -2.28359,-2.283582 -1.26156,10e-7 -2.2841,1.0223072 -2.2841,2.283582 0,0.8261014 0.44021,1.5473563 1.0976,1.9482014 V 4.0436797 l -4.83434,5.836853 h -4.68291 l -0.65733,-0.9126059 c 0.15573,-0.3086663 0.24548,-0.6564601 0.24548,-1.0257771 0,-1.261274 -1.02232,-2.2830647 -2.28359,-2.2830647 -1.26156,0 -2.2841,1.0217907 -2.2841,2.2830647 0,1.2609671 1.02254,2.2830643 2.2841,2.2830643 0.0371,0 0.0734,-0.0034 0.11006,-0.0052 l 1.40923,1.955436 h 3.9579 l -2.97966,3.597713 c -1.23939,0.02555 -2.23655,1.035558 -2.23655,2.280481 0,1.260967 1.02251,2.283065 2.2841,2.283065 1.26124,0 2.28356,-1.022098 2.28356,-2.283065 0,-0.412081 -0.11125,-0.797463 -0.30231,-1.131197 l 9.37411,-11.3171382 h 7.27141 l 4.30567,-4.188374 h 8.76898 v 2.4318928 c -0.62053,0.408159 -1.03095,1.1098234 -1.03095,1.9078938 0,1.2609671 1.02254,2.2830649 2.2841,2.2830649 1.26125,0 2.28358,-1.0220978 2.28358,-2.2830649 0,-0.8850567 -0.50433,-1.6509569 -1.24075,-2.02985 V 0.69711506 l 5.79189,-6.70243326 5.11907,6.37945557 c -0.076,0.2275351 -0.11886,0.47031853 -0.11886,0.72347003 0,0.7010054 0.31704,1.327338 0.81442,1.7461467 l -1.09347,8.0331009 h -9.84798 l -4.30516,4.187858 h -7.41868 l -6.23784,7.531324 h -7.04506 l -5.85856,6.685898 c -0.007,-7.5e-5 -0.0148,-0.0011 -0.0222,-0.0011 -1.26156,0 -2.28409,1.022308 -2.28409,2.283582 0,0.698241 0.31474,1.322186 0.80875,1.740979 v 9.936343 c -0.54637,0.220152 -0.98693,0.645387 -1.22836,1.18029 h -3.86178 c -0.21447,-0.47516 -0.58613,-0.862928 -1.04955,-1.098124 v -9.721863 c 0.74531,-0.375896 1.25781,-1.146006 1.25781,-2.037601 0,-1.261274 -1.02233,-2.283582 -2.2836,-2.283582 -0.59528,0 -1.13551,0.229608 -1.54201,0.602546 l -5.25807,-2.962092 c -0.0175,-1.246103 -1.03177,-2.251025 -2.28203,-2.251025 -1.26159,-1e-6 -2.28409,1.022304 -2.28409,2.283582 0,1.260967 1.0225,2.283063 2.28409,2.283063 0.42169,0 0.81492,-0.116488 1.15393,-0.315743 l 5.72108,3.222543 c 0.14301,0.545549 0.48067,1.012438 0.93692,1.318265 v 9.996289 c -0.61434,0.409204 -1.01907,1.107334 -1.01907,1.900661 0,0.697097 0.31324,1.320099 0.80563,1.73891 l -1.58128,11.888682 c -0.47006,0.201557 -0.85871,0.555934 -1.10331,1.000971 h -5.25341 c -0.16576,-0.301588 -0.39844,-0.560059 -0.67697,-0.759126 l 1.52033,-11.691276 c 0.92628,-0.291068 1.59834,-1.155745 1.59834,-2.178161 0,-1.260967 -1.02232,-2.283066 -2.28359,-2.283066 -1.26156,0 -2.28409,1.022099 -2.28409,2.283066 0,0.691803 0.30885,1.310375 0.79478,1.729091 l -1.54615,11.888163 c -0.82706,0.343316 -1.40872,1.157941 -1.40872,2.108917 0,0.937975 0.56587,1.743009 1.37462,2.094445 l 1.74924,12.903088 c -0.47861,0.4185 -0.78237,1.031595 -0.78237,1.71721 0,1.260962 1.0225,2.283063 2.28409,2.283063 1.26124,0 2.28357,-1.022101 2.28357,-2.283063 0,-0.995421 -0.63823,-1.839897 -1.52705,-2.152325 l -1.72754,-12.739274 c 0.22722,-0.171061 0.42098,-0.382575 0.57105,-0.625285 h 5.37432 c 0.26049,0.421291 0.65326,0.750665 1.12139,0.931209 l 1.70947,12.611634 c -0.68088,0.395222 -1.13998,1.130298 -1.13998,1.974041 0,0.84659 0.46201,1.583933 1.1467,1.978173 v 9.064045 c -0.75123,0.366088 -1.27161,1.130134 -1.28418,2.018999 l -5.37382,3.027206 c -0.33899,-0.1992 -0.73229,-0.315227 -1.15393,-0.315227 -1.26159,0 -2.28409,1.022098 -2.28409,2.283066 0,1.261274 1.0225,2.283579 2.28409,2.283581 1.25045,0 2.2647,-1.005202 2.28203,-2.251543 l 5.37382,-3.027206 c 0.33904,0.199199 0.73271,0.315743 1.15446,0.315743 1.26124,0 2.28409,-1.022096 2.28409,-2.283063 0,-0.779024 -0.39097,-1.466358 -0.9865,-1.878439 V 79.76464 c 0.33491,-0.197858 0.61463,-0.477771 0.81132,-0.813387 h 4.04524 c 0.22506,0.597548 0.69205,1.07542 1.28313,1.313614 v 8.690425 c -0.64778,0.402957 -1.08056,1.119356 -1.08056,1.938385 0,1.260967 1.02253,2.283063 2.28409,2.283063 0.30195,0 0.58934,-0.0605 0.85318,-0.166915 l 5.29942,6.047692 h 7.04506 l 6.23784,7.531323 h 7.41868 l 4.30516,4.18786 h 9.84798 l 1.09347,8.03517 c -0.49738,0.41884 -0.81442,1.04497 -0.81442,1.74614 0,0.29737 0.0588,0.58076 0.16227,0.8413 l -4.31034,6.03735 c -0.10483,-0.0147 -0.21098,-0.0248 -0.31987,-0.0248 -0.23021,0 -0.45246,0.0344 -0.66198,0.0977 l -5.66218,-6.55257 v -2.71921 c 0.73642,-0.3789 1.24075,-1.1448 1.24075,-2.02985 0,-1.26129 -1.02233,-2.28359 -2.28358,-2.28359 -1.26156,0 -2.2841,1.0223 -2.2841,2.28359 0,0.79805 0.41045,1.49921 1.03095,1.90737 v 2.12132 h -8.76957 l -4.30567,-4.18786 h -7.27088 l -9.27539,-11.19931 c 0.12962,-0.28661 0.20359,-0.60345 0.20359,-0.93845 0,-1.26128 -1.02232,-2.28358 -2.28356,-2.28358 -1.26159,0 -2.2841,1.0223 -2.2841,2.28358 0,1.26096 1.02251,2.28307 2.2841,2.28307 0.0687,0 0.13642,-0.004 0.20359,-0.0104 l 2.72852,3.29437 h -3.9579 l -2.07635,2.88096 c -0.0204,-5.3e-4 -0.0401,-0.003 -0.0605,-0.003 -1.26156,0 -2.28357,1.02209 -2.28357,2.28306 0,1.26096 1.02201,2.28359 2.28357,2.28359 1.26127,0 2.28359,-1.02263 2.28359,-2.28359 0,-0.38633 -0.0967,-0.74969 -0.26614,-1.06866 l 1.29553,-1.79731 h 4.68291 l 4.83434,5.83685 v 10.35699 c -0.7443,0.37628 -1.25574,1.1458 -1.25574,2.03657 0,1.26097 1.02203,2.28307 2.28359,2.28307 1.26127,0 2.2841,-1.0221 2.2841,-2.28307 0,-0.79175 -0.40376,-1.48905 -1.01595,-1.89859 v -9.76064 h 5.7304 l 4.30567,4.18734 h 10.32444 l 5.7676,6.67401 c -0.0345,0.15774 -0.0543,0.32129 -0.0543,0.48937 0,1.26097 1.02254,2.28307 2.2841,2.28307 0.0535,0 0.10602,-0.005 0.15864,-0.008 l 5.78415,6.69365 h -7.28121 l -7.59798,-9.77201 h -2.95746 c -0.39057,-0.6983 -1.13601,-1.17099 -1.99316,-1.17099 -1.26156,0 -2.28409,1.0221 -2.28409,2.28306 0,1.26097 1.02253,2.28307 2.28409,2.28307 0.82752,0 1.5497,-0.44144 1.95027,-1.10019 h 1.87691 l 2.88716,3.71347 h -3.7078 c -0.4164,-0.4416 -1.00491,-0.71882 -1.65983,-0.71882 -1.26159,0 -2.2841,1.0223 -2.2841,2.28358 0,1.26096 1.02251,2.28306 2.2841,2.28306 1.00533,0 1.8566,-0.65021 2.16162,-1.55236 h 4.9909 l 2.92592,3.76308 h 9.00824 c 0.40872,0.61768 1.10886,1.02578 1.90531,1.02578 1.26126,0 2.2841,-1.0221 2.2841,-2.28307 0,-1.26127 -1.02284,-2.28358 -2.2841,-2.28358 -0.17263,0 -0.34012,0.0211 -0.50178,0.0574 l -5.88491,-6.80992 c 0.13876,-0.29472 0.21859,-0.62264 0.21859,-0.96996 0,-0.29465 -0.0575,-0.57549 -0.15916,-0.83406 l 4.31394,-6.04356 c 0.1028,0.0142 0.20698,0.0243 0.31368,0.0243 1.26126,0 2.28358,-1.02261 2.28358,-2.28358 0,-0.98148 -0.62032,-1.81546 -1.48931,-2.13837 l -1.15032,-8.45375 2.98276,-3.67523 v -9.239744 l -3.6561,-4.30413 h -2.6231 l -7.33547,-8.483719 c 0.0989,-0.255538 0.15555,-0.532226 0.15555,-0.82269 0,-1.260968 -1.02233,-2.283064 -2.28358,-2.283064 -1.26157,0 -2.2841,1.022096 -2.2841,2.283064 0,1.261274 1.02253,2.283581 2.2841,2.283581 0.11347,0 0.22376,-0.0109 0.33279,-0.02687 l 3.42977,3.966168 h -3.47369 l -4.18992,-5.059125 c 0.20267,-0.341032 0.32091,-0.738206 0.32091,-1.163753 0,-1.260968 -1.02232,-2.283064 -2.28359,-2.283064 -1.26156,0 -2.2841,1.022096 -2.2841,2.283064 0,1.229188 0.9719,2.228741 2.18901,2.278932 l 1.42989,1.72651 h -3.72271 l -2.35903,-2.987932 c 0.15309,-0.306639 0.24133,-0.651446 0.24133,-1.01751 0,-0.786506 -0.39764,-1.479717 -1.00304,-1.890324 l 0.39275,-12.744442 h 4.38576 l 3.15847,4.591452 c -0.29282,0.383892 -0.46869,0.861687 -0.46869,1.381829 0,1.260967 1.02251,2.283063 2.2841,2.283063 1.2302,0 2.23029,-0.973077 2.27892,-2.191081 l 3.01325,-2.241206 c 0.38706,0.301432 0.8722,0.482659 1.40095,0.482659 0.216,0 0.42413,-0.03234 0.62219,-0.08837 l 6.21977,8.691978 c -0.0652,0.212252 -0.10077,0.437645 -0.10077,0.671277 0,1.261274 1.02254,2.283063 2.2841,2.283063 1.26126,0 2.28358,-1.021789 2.28358,-2.283063 0,-1.260967 -1.02232,-2.283066 -2.28358,-2.283066 -0.16381,0 -0.32346,0.01738 -0.47749,0.05013 l -6.31951,-8.830469 c 0.0353,-0.159454 0.0553,-0.32448 0.0553,-0.494543 0,-1.260967 -1.02232,-2.283063 -2.28358,-2.283063 -1.11233,0 -2.03759,0.795115 -2.24121,1.847432 l -3.27163,2.433441 c -0.24294,-0.147198 -0.51499,-0.250055 -0.80616,-0.298172 l -3.28351,-4.772834 3.2494,-3.581694 c 0.091,0.01101 0.18307,0.0186 0.277,0.0186 1.26125,0 2.28358,-1.022305 2.28358,-2.283582 0,-1.260964 -1.02233,-2.283063 -2.28358,-2.283063 -1.26156,0 -2.2841,1.022099 -2.2841,2.283063 0,0.308171 0.0625,0.601544 0.17312,0.869715 l -3.38482,3.731556 h -4.45346 l -0.0718,-11.367783 h 5.02605 c 0.003,1.6e-5 0.005,5.29e-4 0.007,5.29e-4 0.0704,0 0.14028,-0.0084 0.20931,-0.02119 0.0127,-0.0024 0.0251,-0.0045 0.0377,-0.0072 0.0623,-0.01365 0.12309,-0.0325 0.18243,-0.05633 0.0146,-0.0059 0.0286,-0.01265 0.0429,-0.01913 0.0588,-0.02643 0.11597,-0.05609 0.17002,-0.0925 0.0543,-0.03661 0.10539,-0.07966 0.15346,-0.12609 0.01,-0.0094 0.0196,-0.01865 0.029,-0.02842 0.0436,-0.04517 0.0852,-0.0933 0.12197,-0.14676 l 0.005,-0.0078 c 0,-7.94e-4 0,-0.0013 0.003,-0.0021 l 3.66125,-5.322158 c 0.23778,0.08382 0.49215,0.131776 0.75862,0.131776 0.28538,0 0.55741,-0.05429 0.80926,-0.149863 l 3.98838,2.966744 c 0.0579,0.06669 0.12138,0.12927 0.19637,0.182936 0.20245,0.1447 0.436,0.214458 0.66715,0.214458 0.0463,0 0.0926,-0.0032 0.13849,-0.0088 0.31908,-0.02487 0.62654,-0.177261 0.83251,-0.454234 0.0628,-0.08441 0.10767,-0.17575 0.14418,-0.269235 l 7.92096,-11.069608 c 0.006,5e-5 0.0123,0.0011 0.0186,0.0011 1.26126,0 2.28358,-1.021789 2.28358,-2.283063 0,-1.260967 -1.02232,-2.283582 -2.28358,-2.283582 -1.26156,0 -2.2841,1.022615 -2.2841,2.283582 0,0.40087 0.10385,0.776946 0.28525,1.104326 l -7.29102,10.188524 -3.17138,-2.358511 c 0.0174,-0.113634 0.0289,-0.229275 0.0289,-0.347785 0,-1.260967 -1.02231,-2.283063 -2.28358,-2.283063 -1.26156,0 -2.2841,1.022096 -2.2841,2.283063 0,0.09804 0.008,0.194099 0.0201,0.288873 l -3.71245,5.396568 h -4.38576 l -0.38368,-12.440979 c 0.59986,-0.411355 0.99372,-1.101132 0.99372,-1.883605 0,-0.440336 -0.12663,-0.850157 -0.34261,-1.198894 l 2.46084,-3.116603 h 3.72173 l -1.6955,2.047419 c -0.0841,-0.0094 -0.16923,-0.01497 -0.2558,-0.01497 -1.26159,0 -2.28409,1.022096 -2.28409,2.283063 0,1.261277 1.0225,2.283066 2.28409,2.283066 1.26124,0 2.28357,-1.021789 2.28357,-2.283066 0,-0.318116 -0.0654,-0.620927 -0.18294,-0.89607 l 4.66816,-5.6374 h 3.47317 l -3.75171,4.33927 c -0.19969,-0.05704 -0.40986,-0.08888 -0.62788,-0.08888 -1.26156,0 -2.28409,1.022095 -2.28409,2.283063 0,1.261276 1.02253,2.283065 2.28409,2.283065 1.26128,0 2.28359,-1.021789 2.28359,-2.283065 0,-0.181296 -0.0231,-0.356971 -0.063,-0.526066 l 7.86102,-9.090917 h 2.62258 l 3.6561,-4.304131 v -9.239746 l -2.98276,-3.675744 1.15032,-8.4511638 c 0.86899,-0.3229044 1.48931,-1.1571326 1.48931,-2.1383708 0,-1.26127399 -1.02232,-2.2830648 -2.28358,-2.2830648 -0.15016,1e-7 -0.29667,0.015773 -0.43873,0.043408 l -5.31957,-6.6295695 6.64662,-7.6915201 c 0.0642,0.0054 0.12871,0.0098 0.1943,0.0098 1.26126,0 2.2841,-1.022099 2.2841,-2.283065 0,-1.261276 -1.02284,-2.283581 -2.2841,-2.283581 -0.65339,0 -1.24099,0.275701 -1.65726,0.715202 h -6.01876 c -0.38604,-0.71403 -1.14145,-1.19941 -2.01021,-1.199411 z m 6.49625,33.676497 2.43809,3.004468 v 7.582483 l -2.42259,2.852021 h -1.55598 l -1.80712,-2.093411 c 0.11624,-0.273837 0.18035,-0.575188 0.18035,-0.891418 0,-1.260965 -1.02233,-2.283065 -2.28358,-2.283065 -1.26157,0 -2.2841,1.0221 -2.2841,2.283065 0,1.260967 1.02253,2.283064 2.2841,2.283064 0.0873,0 0.17314,-0.006 0.25786,-0.0155 l 1.60766,1.861902 -1.67639,1.938898 h -6.5381 l -1.8371,2.217952 h -6.73603 l -3.42252,4.334621 c -1.19888,0.06963 -2.15027,1.060543 -2.15027,2.276346 0,0.901369 0.52367,1.678252 1.28209,2.049489 l 0.26977,8.746235 c -0.0346,-1.231058 -1.04108,-2.21847 -2.28049,-2.21847 -1.26156,0 -2.2841,1.021792 -2.2841,2.283066 0,1.260967 1.02254,2.283063 2.2841,2.283063 1.25587,0 2.27383,-1.013539 2.28256,-2.267045 l 0.12194,3.941879 c -0.0421,0.120708 -0.0691,0.24875 -0.0682,0.383955 l 0.0661,10.394714 -2.90214,-3.616317 -4.29069,-6.010484 c 0.0911,-0.24652 0.14314,-0.51196 0.14314,-0.790133 0,-1.261276 -1.02232,-2.283581 -2.28359,-2.283581 -1.26156,0 -2.2841,1.022305 -2.2841,2.283581 0,1.260967 1.02254,2.283066 2.2841,2.283066 0.1239,0 0.24423,-0.01254 0.36277,-0.03152 l 2.92076,4.091222 H 180.09 c -0.37833,-0.738211 -1.1452,-1.244369 -2.03192,-1.244369 -1.26156,0 -2.28357,1.022098 -2.28357,2.283065 0,1.261274 1.02201,2.283582 2.28357,2.283582 0.79692,0 1.4978,-0.408699 1.90635,-1.027329 h 9.27748 l -3.0086,4.21473 c -0.0904,-0.01087 -0.18156,-0.0181 -0.27493,-0.0181 -1.26156,0 -2.2841,1.022307 -2.2841,2.283581 0,1.260967 1.02254,2.283066 2.2841,2.283066 1.26127,0 2.28359,-1.022099 2.28359,-2.283066 0,-0.312375 -0.0627,-0.609936 -0.17621,-0.881083 l 3.45971,-4.845699 3.78326,4.715992 -0.4186,13.5847 c -0.75316,0.37319 -1.27228,1.147548 -1.27228,2.044835 0,1.261274 1.02254,2.283582 2.28412,2.283582 0.038,0 0.0751,-0.0038 0.11264,-0.0057 l 3.17603,4.022492 h 6.73603 l 1.8371,2.217955 h 6.53862 l 1.67638,1.938898 -1.86552,2.160593 c -0.15645,-0.03386 -0.31865,-0.05271 -0.48524,-0.05271 -1.26157,0 -2.2841,1.022098 -2.2841,2.283065 0,1.260962 1.02253,2.283062 2.2841,2.283062 1.26126,0 2.28358,-1.0221 2.28358,-2.283062 0,-0.236836 -0.0364,-0.465264 -0.10335,-0.680063 l 2.21537,-2.566252 h 1.55546 l 2.42207,2.851507 v 7.58248 l -2.43809,3.00499 h -9.37049 l -3.92638,-3.81941 -7.26157,-8.810831 c 0.15026,-0.304324 0.23667,-0.645835 0.23667,-1.008206 0,-1.260964 -1.02283,-2.283065 -2.28409,-2.283065 -1.26156,0 -2.28357,1.022101 -2.28357,2.283065 0,1.261277 1.02201,2.283582 2.28357,2.283582 0.0401,0 0.0793,-0.0042 0.11885,-0.0062 l 5.91179,7.173205 h -4.37181 l -8.91884,-10.767819 c 0.13753,-0.293647 0.21704,-0.620154 0.21704,-0.965832 0,-1.261277 -1.02233,-2.283066 -2.2836,-2.283066 -1.26156,0 -2.28409,1.021789 -2.28409,2.283066 0,1.260965 1.02253,2.283066 2.28409,2.283066 0.0573,0 0.11324,-0.0046 0.16952,-0.0088 l 1.59732,1.928566 h -4.10364 l -4.92373,-5.619813 c 0.009,-0.08201 0.0145,-0.164698 0.0145,-0.249079 0,-0.865635 -0.4817,-1.618845 -1.19166,-2.006081 v -8.971026 c 0.51263,-0.418706 0.84026,-1.055296 0.84026,-1.768885 0,-1.260968 -1.02232,-2.283066 -2.28359,-2.283066 -0.69051,0 -1.30773,0.307168 -1.72651,0.791168 h -4.45037 c -0.1936,-0.3331 -0.46863,-0.612106 -0.79841,-0.810806 l -1.76165,-12.99352 c 0.51068,-0.41874 0.83667,-1.054309 0.83667,-1.7663 0,-0.741942 -0.35552,-1.398892 -0.90384,-1.81591 l 1.5653,-11.767759 c 0.42193,-0.154564 0.78417,-0.429463 1.04746,-0.783931 h 4.3584 c 0.41616,0.560401 1.08106,0.92501 1.83295,0.92501 1.26127,0 2.28359,-1.022308 2.28359,-2.283582 0,-0.713417 -0.32763,-1.349698 -0.84026,-1.768369 v -9.897586 c 0.85519,-0.329883 1.46296,-1.157232 1.46296,-2.128552 0,-0.388223 -0.0973,-0.75324 -0.26821,-1.073319 l 4.90609,-5.599656 h 4.10311 l -2.06756,2.495972 c -0.0467,-0.0029 -0.0931,-0.0072 -0.14057,-0.0072 -1.26156,-2e-6 -2.2836,1.022305 -2.2836,2.283579 0,1.260968 1.02204,2.283066 2.2836,2.283066 1.26126,0 2.28359,-1.022098 2.28359,-2.283066 0,-0.354898 -0.0829,-0.690012 -0.22739,-0.989602 l 9.37102,-11.314038 h 4.24418 l -7.22437,8.106482 c -0.073,-0.007 -0.14687,-0.01137 -0.22169,-0.01137 -1.26156,0 -2.2836,1.022098 -2.2836,2.283065 0,1.261274 1.02204,2.283581 2.2836,2.283581 1.26126,0 2.28409,-1.022307 2.28409,-2.283581 0,-0.326843 -0.0695,-0.637178 -0.19328,-0.91829 l 8.74676,-9.814399 3.94085,-3.833358 z"
       style="fill:#ffffff;fill-opacity:0.57766993;fill-rule:evenodd;stroke:none;stroke-width:0.26458332" />
  </g>
</svg>
